<svg xmlns="http://www.w3.org/2000/svg" width="72" height="72" viewBox="0 0 72 72">
  <g id="Group_74" data-name="Group 74" transform="translate(-152 -180)">
    <g id="Ellipse_12" data-name="Ellipse 12" transform="translate(152 180)" fill="none" stroke="#707070" stroke-width="1">
      <circle cx="36" cy="36" r="36" stroke="none"/>
      <circle cx="36" cy="36" r="35.5" fill="none"/>
    </g>
    <path id="Icon_material-add-a-photo" data-name="Icon material-add-a-photo" d="M4.5,6V1.5h3V6H12V9H7.5v4.5h-3V9H0V6ZM9,15V10.5h4.5V6H24l2.745,3H31.5a3.009,3.009,0,0,1,3,3V30a3.009,3.009,0,0,1-3,3H7.5a3.009,3.009,0,0,1-3-3V15ZM19.5,28.5A7.5,7.5,0,1,0,12,21,7.5,7.5,0,0,0,19.5,28.5ZM14.7,21a4.8,4.8,0,1,0,4.8-4.8A4.795,4.795,0,0,0,14.7,21Z" transform="translate(170.25 198.75)" fill="#707070"/>
  </g>
</svg>
