<svg xmlns="http://www.w3.org/2000/svg" width="30" height="30" viewBox="0 0 30 30">
  <path id="Icon_feather-phone" data-name="Icon feather-phone" d="M27.556,31.5c-.123,0-.248-.006-.37-.017l-.025,0A28.668,28.668,0,0,1,14.74,27.072,28.255,28.255,0,0,1,6.1,18.451,28.545,28.545,0,0,1,1.687,6l0-.021A4.107,4.107,0,0,1,5.776,1.5h4.14a4.109,4.109,0,0,1,4.071,3.53l0,.013a16.2,16.2,0,0,0,.885,3.545,4.109,4.109,0,0,1-.926,4.327l-.005.005-.983.981a20.556,20.556,0,0,0,6.285,6.274l.983-.981.005-.005a4.117,4.117,0,0,1,4.338-.923,16.268,16.268,0,0,0,3.548.882l.012,0A4.106,4.106,0,0,1,31.667,23.3v4.086A4.108,4.108,0,0,1,27.556,31.5Zm-.113-2.741c.038,0,.076,0,.113,0a1.369,1.369,0,0,0,1.37-1.374s0,0,0-.006V24.109c0-.011,0-.852,0-.863a1.369,1.369,0,0,0-1.174-1.388,19.024,19.024,0,0,1-4.144-1.031,1.372,1.372,0,0,0-1.446.3l-1.738,1.735a1.372,1.372,0,0,1-1.647.222,23.289,23.289,0,0,1-8.737-8.722,1.366,1.366,0,0,1,.222-1.644L12,10.988a1.37,1.37,0,0,0,.306-1.441,18.942,18.942,0,0,1-1.034-4.139A1.376,1.376,0,0,0,9.916,4.236H5.777A1.369,1.369,0,0,0,4.414,5.718a25.8,25.8,0,0,0,3.994,11.25l.006.01a25.5,25.5,0,0,0,7.8,7.788l.011.007A25.91,25.91,0,0,0,27.442,28.759Z" transform="translate(-1.668 -1.5)"/>
</svg>
