<svg xmlns="http://www.w3.org/2000/svg" width="27" height="27" viewBox="0 0 27 27">
  <g id="Gear" transform="translate(-252.209 -1301)">
    <g id="Gear_spikes" data-name="Gear spikes" transform="translate(1263 719)" fill="#fff">
      <path d="M -997.2909545898438 608.5003051757812 C -997.7526245117188 608.5003051757812 -998.2178955078125 608.4755859375 -998.6784057617188 608.4267578125 L -999.672119140625 604.439697265625 L -999.7398071289062 604.1681518554688 L -1000.006652832031 604.0838623046875 C -1000.498779296875 603.9282836914062 -1000.980834960938 603.7283935546875 -1001.439392089844 603.4896850585938 L -1001.687805175781 603.3604125976562 L -1001.927856445312 603.5046997070312 L -1005.449340820312 605.6212768554688 C -1006.172119140625 605.0379638671875 -1006.83056640625 604.3798217773438 -1007.412719726562 603.65869140625 L -1005.295104980469 600.1365966796875 L -1005.15087890625 599.8966674804688 L -1005.280029296875 599.6482543945312 C -1005.518432617188 599.18994140625 -1005.718078613281 598.7081909179688 -1005.873596191406 598.2162475585938 L -1005.957946777344 597.949462890625 L -1006.229431152344 597.8817749023438 L -1010.217407226562 596.8877563476562 C -1010.266235351562 596.427001953125 -1010.290954589844 595.9617309570312 -1010.290954589844 595.5003051757812 C -1010.290954589844 595.0389404296875 -1010.266235351562 594.57373046875 -1010.217407226562 594.1129150390625 L -1006.229736328125 593.11962890625 L -1005.958129882812 593.052001953125 L -1005.873840332031 592.7850952148438 C -1005.718322753906 592.2930297851562 -1005.518615722656 591.8111572265625 -1005.280212402344 591.3529052734375 L -1005.151062011719 591.1044921875 L -1005.295288085938 590.8645629882812 L -1007.412780761719 587.3419189453125 C -1006.829895019531 586.6198120117188 -1006.171752929688 585.961669921875 -1005.450256347656 585.3793334960938 L -1001.928039550781 587.4966430664062 L -1001.688049316406 587.6409301757812 L -1001.439636230469 587.5116577148438 C -1000.981140136719 587.2731323242188 -1000.4990234375 587.0732421875 -1000.006713867188 586.9176025390625 L -999.7398681640625 586.833251953125 L -999.6722412109375 586.561767578125 L -998.6784057617188 582.5730590820312 C -998.2205810546875 582.5247192382812 -997.7553100585938 582.5003051757812 -997.2909545898438 582.5003051757812 C -996.8265380859375 582.5003051757812 -996.3612670898438 582.5247192382812 -995.9034423828125 582.5730590820312 L -994.9096069335938 586.5617065429688 L -994.8419189453125 586.8331909179688 L -994.5751342773438 586.9175415039062 C -994.0828857421875 587.0731201171875 -993.6007690429688 587.2730102539062 -993.1421508789062 587.5115966796875 L -992.8937377929688 587.640869140625 L -992.6537475585938 587.49658203125 L -989.1314697265625 585.3792724609375 C -988.4108276367188 585.9605102539062 -987.7527465820312 586.61865234375 -987.1690673828125 587.3418579101562 L -989.2861938476562 590.8639526367188 L -989.4304809570312 591.1039428710938 L -989.3012084960938 591.352294921875 C -989.0625610351562 591.81103515625 -988.8626708984375 592.2931518554688 -988.7071533203125 592.7852783203125 L -988.6228637695312 593.0521850585938 L -988.3512573242188 593.1198120117188 L -984.3636474609375 594.1129150390625 C -984.3153076171875 594.5707397460938 -984.2908935546875 595.0359497070312 -984.2908935546875 595.5003051757812 C -984.2908935546875 595.9647216796875 -984.3153076171875 596.4299926757812 -984.3636474609375 596.8877563476562 L -988.3515014648438 597.881591796875 L -988.623046875 597.9492797851562 L -988.7073364257812 598.2161254882812 C -988.8628540039062 598.7081298828125 -989.0626831054688 599.1901245117188 -989.3013305664062 599.6488037109375 L -989.4306030273438 599.897216796875 L -989.2863159179688 600.13720703125 L -987.1691284179688 603.6587524414062 C -987.7518310546875 604.3805541992188 -988.4099731445312 605.0386962890625 -989.1316528320312 605.6212768554688 L -992.65380859375 603.504638671875 L -992.893798828125 603.3604125976562 L -993.1422119140625 603.4896850585938 C -993.6007690429688 603.7283325195312 -994.0828247070312 603.92822265625 -994.5750122070312 604.0838012695312 L -994.8418579101562 604.1681518554688 L -994.9094848632812 604.439697265625 L -995.9026489257812 608.4266967773438 C -996.36376953125 608.4755859375 -996.829345703125 608.5003051757812 -997.2909545898438 608.5003051757812 Z" stroke="none"/>
      <path d="M -997.2909545898438 608.0003051757812 C -996.9623413085938 608.0003051757812 -996.631591796875 607.9873046875 -996.302001953125 607.96142578125 L -995.2593994140625 603.7757568359375 L -994.7257080078125 603.6070556640625 C -994.2611083984375 603.460205078125 -993.8059692382812 603.271484375 -993.3729858398438 603.046142578125 L -992.8762817382812 602.7876586914062 L -989.1781005859375 605.010009765625 C -988.6763916015625 604.5816040039062 -988.2089233398438 604.1141357421875 -987.7803955078125 603.6123046875 L -990.00341796875 599.9148559570312 L -989.744873046875 599.41796875 C -989.5195922851562 598.9849853515625 -989.3308715820312 598.5299072265625 -989.1841430664062 598.0654296875 L -989.0154418945312 597.5317993164062 L -984.8291625976562 596.4884643554688 C -984.8037109375 596.1608276367188 -984.7908935546875 595.8303833007812 -984.7908935546875 595.5003051757812 C -984.7908935546875 595.1702880859375 -984.8037109375 594.83984375 -984.8291015625 594.5122680664062 L -989.0152587890625 593.4697265625 L -989.1839599609375 592.9359741210938 C -989.3307495117188 592.4713745117188 -989.5194091796875 592.0161743164062 -989.7447509765625 591.5830688476562 L -990.0032348632812 591.0863037109375 L -987.7803344726562 587.3882446289062 C -988.2093505859375 586.8857421875 -988.6766967773438 586.4182739257812 -989.1777954101562 585.990478515625 L -992.8761596679688 588.213623046875 L -993.3729248046875 587.9552001953125 C -993.805908203125 587.7298583984375 -994.2611083984375 587.5411987304688 -994.725830078125 587.394287109375 L -995.2594604492188 587.2256469726562 L -996.302734375 583.03857421875 C -996.9580078125 582.9877319335938 -997.6238403320312 582.9876708984375 -998.2791137695312 583.03857421875 L -999.3223876953125 587.2256469726562 L -999.85595703125 587.3943481445312 C -1000.32080078125 587.541259765625 -1000.775939941406 587.72998046875 -1001.208862304688 587.9552001953125 L -1001.705627441406 588.2136840820312 L -1005.403869628906 585.9906005859375 C -1005.905456542969 586.4189453125 -1006.372863769531 586.8863525390625 -1006.801513671875 587.3883056640625 L -1004.578247070312 591.0868530273438 L -1004.836669921875 591.5836181640625 C -1005.061706542969 592.0162963867188 -1005.250244140625 592.4712524414062 -1005.397033691406 592.9357299804688 L -1005.565673828125 593.4695434570312 L -1009.752136230469 594.5122680664062 C -1009.777954101562 594.841552734375 -1009.790954589844 595.1719360351562 -1009.790954589844 595.5003051757812 C -1009.790954589844 595.8287353515625 -1009.777954101562 596.1591796875 -1009.752136230469 596.4884033203125 L -1005.565490722656 597.531982421875 L -1005.396850585938 598.0655517578125 C -1005.250061035156 598.5299682617188 -1005.0615234375 598.98486328125 -1004.83642578125 599.4175415039062 L -1004.578063964844 599.914306640625 L -1006.801391601562 603.6123046875 C -1006.373046875 604.1137084960938 -1005.905395507812 604.5811157226562 -1005.402954101562 605.010009765625 L -1001.705383300781 602.78759765625 L -1001.208557128906 603.0462036132812 C -1000.775634765625 603.2715454101562 -1000.320556640625 603.4602661132812 -999.85595703125 603.6070556640625 L -999.3223266601562 603.7756958007812 L -998.279052734375 607.9614868164062 C -997.949951171875 607.9873046875 -997.6195068359375 608.0003051757812 -997.2909545898438 608.0003051757812 M -997.2909545898438 609.0003051757812 C -997.8975219726562 609.0003051757812 -998.4951171875 608.9598388671875 -999.0801391601562 608.8823852539062 L -1000.157287597656 604.5606079101562 C -1000.682983398438 604.3944702148438 -1001.188598632812 604.1839599609375 -1001.670288085938 603.9332275390625 L -1005.487243652344 606.2274169921875 C -1006.438537597656 605.4993286132812 -1007.290832519531 604.6478881835938 -1008.018920898438 603.6965942382812 L -1005.7236328125 599.8789672851562 C -1005.973937988281 599.397705078125 -1006.184387207031 598.8919677734375 -1006.350341796875 598.366943359375 L -1010.673034667969 597.2894897460938 C -1010.750427246094 596.7045288085938 -1010.790954589844 596.10693359375 -1010.790954589844 595.5003051757812 C -1010.790954589844 594.8937377929688 -1010.750427246094 594.296142578125 -1010.673034667969 593.7111206054688 L -1006.3505859375 592.6344604492188 C -1006.1845703125 592.1090698242188 -1005.974243164062 591.6035766601562 -1005.723815917969 591.1221313476562 L -1008.018920898438 587.3040161132812 C -1007.290832519531 586.3527221679688 -1006.438537597656 585.5004272460938 -1005.488098144531 584.773193359375 L -1001.67041015625 587.068115234375 C -1001.18896484375 586.817626953125 -1000.682739257812 586.60693359375 -1000.157409667969 586.4408569335938 L -999.0801391601562 582.1173095703125 C -998.4951171875 582.0399169921875 -997.8975219726562 582.0003051757812 -997.2909545898438 582.0003051757812 C -996.684326171875 582.0003051757812 -996.0867309570312 582.0399169921875 -995.501708984375 582.1173095703125 L -994.4244384765625 586.4407958984375 C -993.8988037109375 586.60693359375 -993.39306640625 586.8174438476562 -992.911376953125 587.0680541992188 L -989.09375 584.773193359375 C -988.1423950195312 585.5004272460938 -987.291015625 586.3527221679688 -986.5629272460938 587.3040161132812 L -988.857666015625 591.1215209960938 C -988.607177734375 591.6029663085938 -988.3964233398438 592.1092529296875 -988.2304077148438 592.6346435546875 L -983.9078979492188 593.7111206054688 C -983.8305053710938 594.296142578125 -983.7908935546875 594.8937377929688 -983.7908935546875 595.5003051757812 C -983.7908935546875 596.10693359375 -983.8305053710938 596.7045288085938 -983.9078979492188 597.2894897460938 L -988.2305908203125 598.3667602539062 C -988.396728515625 598.8924560546875 -988.6071166992188 599.3978271484375 -988.8577880859375 599.8795776367188 L -986.5629272460938 603.6965942382812 C -987.291015625 604.6478881835938 -988.1423950195312 605.4993286132812 -989.09375 606.2274169921875 L -992.911376953125 603.9332275390625 C -993.392822265625 604.1837768554688 -993.89892578125 604.3944702148438 -994.42431640625 604.560546875 L -995.5008544921875 608.8823852539062 C -996.0867309570312 608.9598388671875 -996.684326171875 609.0003051757812 -997.2909545898438 609.0003051757812 Z" stroke="none" fill="#707070"/>
    </g>
    <g id="Ellipse_4" data-name="Ellipse 4" transform="translate(260.209 1309)" fill="#fff" stroke="#707070" stroke-width="1">
      <circle cx="5.5" cy="5.5" r="5.5" stroke="none"/>
      <circle cx="5.5" cy="5.5" r="5" fill="none"/>
    </g>
  </g>
</svg>
