<svg xmlns="http://www.w3.org/2000/svg" width="23" height="22" viewBox="0 0 23 22">
  <g id="Polygon_5" data-name="Polygon 5" fill="none">
    <path d="M11.5,0l2.875,8.181L23,8.4l-6.848,5.278L18.607,22,11.5,17.081,4.393,22l2.456-8.319L0,8.4l8.625-.222Z" stroke="none"/>
    <path d="M 11.5 3.016300201416016 L 9.339889526367188 9.163410186767578 L 2.841169357299805 9.330520629882812 L 8.00117015838623 13.30758953094482 L 6.154182434082031 19.56457138061523 L 11.5 15.86448001861572 L 16.84581756591797 19.56457138061523 L 14.99882984161377 13.30758953094482 L 20.1588306427002 9.330520629882812 L 13.66011047363281 9.163410186767578 L 11.5 3.016300201416016 M 11.5 0 L 14.375 8.181460380554199 L 23 8.403249740600586 L 16.1518497467041 13.6814603805542 L 18.60738945007324 22 L 11.5 17.08065032958984 L 4.392610549926758 22 L 6.848150253295898 13.6814603805542 L 0 8.403249740600586 L 8.625 8.181460380554199 L 11.5 0 Z" stroke="none" fill="#ffe600"/>
  </g>
</svg>
