<svg xmlns="http://www.w3.org/2000/svg" width="31.429" height="22" viewBox="0 0 31.429 22">
  <path id="Icon_awesome-wifi" data-name="Icon awesome-wifi" d="M31.179,8.284a22.833,22.833,0,0,0-30.929,0A.781.781,0,0,0,.233,9.413l1.681,1.668a.8.8,0,0,0,1.1.019,18.841,18.841,0,0,1,25.4,0,.8.8,0,0,0,1.1-.019L31.2,9.413a.781.781,0,0,0-.018-1.128Zm-15.464,9.68a3.143,3.143,0,1,0,3.143,3.143A3.143,3.143,0,0,0,15.714,17.964Zm9.953-4.1a15.076,15.076,0,0,0-19.905,0A.776.776,0,0,0,5.734,15l1.691,1.669a.8.8,0,0,0,1.083.039,11.06,11.06,0,0,1,14.412,0A.8.8,0,0,0,24,16.665L25.694,15A.776.776,0,0,0,25.667,13.859Z" transform="translate(0 -2.25)" fill="#37a2ff"/>
</svg>
